<svg width="65" height="21" viewBox="0 0 65 21" fill="none" xmlns="http://www.w3.org/2000/svg">
<path d="M11.75 1.14434C11.9047 1.05502 12.0953 1.05502 12.25 1.14434L20.7763 6.06699C21.2193 6.32276 21.0378 7 20.5263 7H3.47372C2.96217 7 2.7807 6.32276 3.22372 6.06699L11.75 1.14434Z" stroke="white"/>
<rect x="5" y="7" width="4" height="2" rx="0.5" stroke="white"/>
<rect x="15" y="7" width="4" height="2" rx="0.5" stroke="white"/>
<mask id="path-4-inside-1_3839_23" fill="white">
<rect x="10" y="10" width="4" height="7.5" rx="0.5"/>
</mask>
<rect x="10" y="10" width="4" height="7.5" rx="0.5" stroke="white" stroke-width="2" mask="url(#path-4-inside-1_3839_23)"/>
<rect x="3" y="17" width="18" height="3" rx="0.5" stroke="white"/>
<rect x="6" y="9" width="2" height="6" stroke="white"/>
<rect x="16" y="9" width="2" height="6" stroke="white"/>
<rect x="5" y="15" width="4" height="2" rx="0.5" stroke="white"/>
<rect x="15" y="15" width="4" height="2" rx="0.5" stroke="white"/>
<path d="M25.869 5.002H26.8L28.725 10H27.787L27.318 8.677H25.323L24.854 10H23.951L25.869 5.002ZM25.561 8.012H27.087L26.338 5.863H26.317L25.561 8.012ZM32.5749 6.591C32.5376 6.44633 32.4863 6.31333 32.4209 6.192C32.3556 6.07067 32.2716 5.96567 32.1689 5.877C32.0663 5.78833 31.9449 5.72067 31.8049 5.674C31.6696 5.62267 31.5109 5.597 31.3289 5.597C31.0629 5.597 30.8319 5.65067 30.6359 5.758C30.4446 5.86533 30.2883 6.01 30.1669 6.192C30.0456 6.36933 29.9546 6.57233 29.8939 6.801C29.8379 7.02967 29.8099 7.263 29.8099 7.501C29.8099 7.739 29.8379 7.97233 29.8939 8.201C29.9546 8.42967 30.0456 8.635 30.1669 8.817C30.2883 8.99433 30.4446 9.13667 30.6359 9.244C30.8319 9.35133 31.0629 9.405 31.3289 9.405C31.5249 9.405 31.6976 9.37233 31.8469 9.307C31.9963 9.237 32.1246 9.14367 32.2319 9.027C32.3393 8.90567 32.4233 8.76567 32.4839 8.607C32.5446 8.44833 32.5843 8.278 32.6029 8.096H33.4569C33.4383 8.39467 33.3729 8.66767 33.2609 8.915C33.1536 9.16233 33.0066 9.377 32.8199 9.559C32.6333 9.73633 32.4139 9.874 32.1619 9.972C31.9099 10.07 31.6323 10.119 31.3289 10.119C30.9556 10.119 30.6196 10.0513 30.3209 9.916C30.0269 9.776 29.7773 9.587 29.5719 9.349C29.3666 9.111 29.2079 8.83333 29.0959 8.516C28.9886 8.19867 28.9349 7.86033 28.9349 7.501C28.9349 7.14633 28.9886 6.81033 29.0959 6.493C29.2079 6.17567 29.3666 5.898 29.5719 5.66C29.7773 5.422 30.0269 5.233 30.3209 5.093C30.6196 4.953 30.9556 4.883 31.3289 4.883C31.6089 4.883 31.8726 4.92267 32.1199 5.002C32.3673 5.07667 32.5843 5.18867 32.7709 5.338C32.9623 5.48267 33.1163 5.66 33.2329 5.87C33.3496 6.08 33.4219 6.32033 33.4499 6.591H32.5749ZM34.2317 5.002H35.1067V6.99H37.3817V5.002H38.2567V10H37.3817V7.746H35.1067V10H34.2317V5.002ZM24.532 14.002H26.604C26.9867 14.002 27.318 14.0673 27.598 14.198C27.878 14.3287 28.1067 14.5083 28.284 14.737C28.4613 14.961 28.592 15.2247 28.676 15.528C28.7647 15.8313 28.809 16.1557 28.809 16.501C28.809 16.8463 28.7647 17.1707 28.676 17.474C28.592 17.7773 28.4613 18.0433 28.284 18.272C28.1067 18.496 27.878 18.6733 27.598 18.804C27.318 18.9347 26.9867 19 26.604 19H24.532V14.002ZM25.407 18.286H26.268C26.6087 18.286 26.8863 18.2417 27.101 18.153C27.3203 18.0597 27.4907 17.9337 27.612 17.775C27.738 17.6117 27.822 17.4227 27.864 17.208C27.9107 16.9887 27.934 16.753 27.934 16.501C27.934 16.249 27.9107 16.0157 27.864 15.801C27.822 15.5817 27.738 15.3927 27.612 15.234C27.4907 15.0707 27.3203 14.9447 27.101 14.856C26.8863 14.7627 26.6087 14.716 26.268 14.716H25.407V18.286ZM29.4928 14.002H30.2908V14.758H29.4928V14.002ZM29.4928 15.381H30.2908V19H29.4928V15.381ZM31.1602 15.381H31.9092V16.081H31.9232C31.9466 15.983 31.9909 15.8873 32.0562 15.794C32.1262 15.7007 32.2079 15.6167 32.3012 15.542C32.3992 15.4627 32.5066 15.3997 32.6232 15.353C32.7399 15.3063 32.8589 15.283 32.9802 15.283C33.0736 15.283 33.1366 15.2853 33.1692 15.29C33.2066 15.2947 33.2439 15.2993 33.2812 15.304V16.074C33.2252 16.0647 33.1669 16.0577 33.1062 16.053C33.0502 16.0437 32.9942 16.039 32.9382 16.039C32.8029 16.039 32.6746 16.067 32.5532 16.123C32.4366 16.1743 32.3339 16.2537 32.2452 16.361C32.1566 16.4637 32.0866 16.592 32.0352 16.746C31.9839 16.9 31.9582 17.0773 31.9582 17.278V19H31.1602V15.381ZM35.9831 16.872C35.9738 16.746 35.9458 16.6247 35.8991 16.508C35.8571 16.3913 35.7965 16.291 35.7171 16.207C35.6425 16.1183 35.5491 16.0483 35.4371 15.997C35.3298 15.941 35.2085 15.913 35.0731 15.913C34.9331 15.913 34.8048 15.9387 34.6881 15.99C34.5761 16.0367 34.4781 16.1043 34.3941 16.193C34.3148 16.277 34.2495 16.3773 34.1981 16.494C34.1515 16.6107 34.1258 16.7367 34.1211 16.872H35.9831ZM34.1211 17.397C34.1211 17.537 34.1398 17.6723 34.1771 17.803C34.2191 17.9337 34.2798 18.048 34.3591 18.146C34.4385 18.244 34.5388 18.3233 34.6601 18.384C34.7815 18.44 34.9261 18.468 35.0941 18.468C35.3275 18.468 35.5141 18.419 35.6541 18.321C35.7988 18.2183 35.9061 18.0667 35.9761 17.866H36.7321C36.6901 18.062 36.6178 18.237 36.5151 18.391C36.4125 18.545 36.2888 18.6757 36.1441 18.783C35.9995 18.8857 35.8361 18.9627 35.6541 19.014C35.4768 19.07 35.2901 19.098 35.0941 19.098C34.8095 19.098 34.5575 19.0513 34.3381 18.958C34.1188 18.8647 33.9321 18.734 33.7781 18.566C33.6288 18.398 33.5145 18.1973 33.4351 17.964C33.3605 17.7307 33.3231 17.474 33.3231 17.194C33.3231 16.9373 33.3628 16.6947 33.4421 16.466C33.5261 16.2327 33.6428 16.0297 33.7921 15.857C33.9461 15.6797 34.1305 15.5397 34.3451 15.437C34.5598 15.3343 34.8025 15.283 35.0731 15.283C35.3578 15.283 35.6121 15.3437 35.8361 15.465C36.0648 15.5817 36.2538 15.738 36.4031 15.934C36.5525 16.13 36.6598 16.3563 36.7251 16.613C36.7951 16.865 36.8138 17.1263 36.7811 17.397H34.1211ZM39.8308 16.592C39.7981 16.368 39.7071 16.2 39.5578 16.088C39.4131 15.9713 39.2288 15.913 39.0048 15.913C38.9021 15.913 38.7924 15.9317 38.6758 15.969C38.5591 16.0017 38.4518 16.067 38.3538 16.165C38.2558 16.2583 38.1741 16.3913 38.1088 16.564C38.0434 16.732 38.0108 16.9537 38.0108 17.229C38.0108 17.3783 38.0271 17.5277 38.0598 17.677C38.0971 17.8263 38.1531 17.9593 38.2278 18.076C38.3071 18.1927 38.4074 18.2883 38.5288 18.363C38.6501 18.433 38.7971 18.468 38.9698 18.468C39.2031 18.468 39.3944 18.3957 39.5438 18.251C39.6978 18.1063 39.7934 17.9033 39.8308 17.642H40.6288C40.5541 18.1133 40.3744 18.475 40.0898 18.727C39.8098 18.9743 39.4364 19.098 38.9698 19.098C38.6851 19.098 38.4331 19.0513 38.2138 18.958C37.9991 18.86 37.8171 18.7293 37.6678 18.566C37.5184 18.398 37.4041 18.1997 37.3248 17.971C37.2501 17.7423 37.2128 17.495 37.2128 17.229C37.2128 16.9583 37.2501 16.704 37.3248 16.466C37.3994 16.228 37.5114 16.0227 37.6608 15.85C37.8101 15.6727 37.9944 15.535 38.2138 15.437C38.4378 15.3343 38.6991 15.283 38.9978 15.283C39.2078 15.283 39.4061 15.311 39.5928 15.367C39.7841 15.4183 39.9521 15.4977 40.0968 15.605C40.2461 15.7123 40.3674 15.8477 40.4608 16.011C40.5541 16.1743 40.6101 16.368 40.6288 16.592H39.8308ZM40.9134 15.381H41.5154V14.296H42.3134V15.381H43.0344V15.976H42.3134V17.908C42.3134 17.992 42.3158 18.0643 42.3204 18.125C42.3298 18.1857 42.3461 18.237 42.3694 18.279C42.3974 18.321 42.4371 18.3537 42.4884 18.377C42.5398 18.3957 42.6098 18.405 42.6984 18.405C42.7544 18.405 42.8104 18.405 42.8664 18.405C42.9224 18.4003 42.9784 18.391 43.0344 18.377V18.993C42.9458 19.0023 42.8594 19.0117 42.7754 19.021C42.6914 19.0303 42.6051 19.035 42.5164 19.035C42.3064 19.035 42.1361 19.0163 42.0054 18.979C41.8794 18.937 41.7791 18.8787 41.7044 18.804C41.6344 18.7247 41.5854 18.6267 41.5574 18.51C41.5341 18.3933 41.5201 18.2603 41.5154 18.111V15.976H40.9134V15.381ZM45.6687 14.002H47.7407C48.1234 14.002 48.4547 14.0673 48.7347 14.198C49.0147 14.3287 49.2434 14.5083 49.4207 14.737C49.5981 14.961 49.7287 15.2247 49.8127 15.528C49.9014 15.8313 49.9457 16.1557 49.9457 16.501C49.9457 16.8463 49.9014 17.1707 49.8127 17.474C49.7287 17.7773 49.5981 18.0433 49.4207 18.272C49.2434 18.496 49.0147 18.6733 48.7347 18.804C48.4547 18.9347 48.1234 19 47.7407 19H45.6687V14.002ZM46.5437 18.286H47.4047C47.7454 18.286 48.0231 18.2417 48.2377 18.153C48.4571 18.0597 48.6274 17.9337 48.7487 17.775C48.8747 17.6117 48.9587 17.4227 49.0007 17.208C49.0474 16.9887 49.0707 16.753 49.0707 16.501C49.0707 16.249 49.0474 16.0157 49.0007 15.801C48.9587 15.5817 48.8747 15.3927 48.7487 15.234C48.6274 15.0707 48.4571 14.9447 48.2377 14.856C48.0231 14.7627 47.7454 14.716 47.4047 14.716H46.5437V18.286ZM53.0935 16.872C53.0841 16.746 53.0561 16.6247 53.0095 16.508C52.9675 16.3913 52.9068 16.291 52.8275 16.207C52.7528 16.1183 52.6595 16.0483 52.5475 15.997C52.4401 15.941 52.3188 15.913 52.1835 15.913C52.0435 15.913 51.9151 15.9387 51.7985 15.99C51.6865 16.0367 51.5885 16.1043 51.5045 16.193C51.4251 16.277 51.3598 16.3773 51.3085 16.494C51.2618 16.6107 51.2361 16.7367 51.2315 16.872H53.0935ZM51.2315 17.397C51.2315 17.537 51.2501 17.6723 51.2875 17.803C51.3295 17.9337 51.3901 18.048 51.4695 18.146C51.5488 18.244 51.6491 18.3233 51.7705 18.384C51.8918 18.44 52.0365 18.468 52.2045 18.468C52.4378 18.468 52.6245 18.419 52.7645 18.321C52.9091 18.2183 53.0165 18.0667 53.0865 17.866H53.8425C53.8005 18.062 53.7281 18.237 53.6255 18.391C53.5228 18.545 53.3991 18.6757 53.2545 18.783C53.1098 18.8857 52.9465 18.9627 52.7645 19.014C52.5871 19.07 52.4005 19.098 52.2045 19.098C51.9198 19.098 51.6678 19.0513 51.4485 18.958C51.2291 18.8647 51.0425 18.734 50.8885 18.566C50.7391 18.398 50.6248 18.1973 50.5455 17.964C50.4708 17.7307 50.4335 17.474 50.4335 17.194C50.4335 16.9373 50.4731 16.6947 50.5525 16.466C50.6365 16.2327 50.7531 16.0297 50.9025 15.857C51.0565 15.6797 51.2408 15.5397 51.4555 15.437C51.6701 15.3343 51.9128 15.283 52.1835 15.283C52.4681 15.283 52.7225 15.3437 52.9465 15.465C53.1751 15.5817 53.3641 15.738 53.5135 15.934C53.6628 16.13 53.7701 16.3563 53.8355 16.613C53.9055 16.865 53.9241 17.1263 53.8915 17.397H51.2315ZM54.5191 14.002H55.3171V15.85H55.3311C55.3871 15.7613 55.4548 15.682 55.5341 15.612C55.6135 15.542 55.6998 15.4837 55.7931 15.437C55.8911 15.3857 55.9915 15.3483 56.0941 15.325C56.2015 15.297 56.3065 15.283 56.4091 15.283C56.6938 15.283 56.9411 15.3343 57.1511 15.437C57.3658 15.535 57.5431 15.6727 57.6831 15.85C57.8231 16.0227 57.9281 16.2257 57.9981 16.459C58.0681 16.6923 58.1031 16.942 58.1031 17.208C58.1031 17.4507 58.0705 17.6863 58.0051 17.915C57.9445 18.1437 57.8488 18.3467 57.7181 18.524C57.5921 18.6967 57.4311 18.8367 57.2351 18.944C57.0391 19.0467 56.8081 19.098 56.5421 19.098C56.4208 19.098 56.2971 19.0887 56.1711 19.07C56.0498 19.056 55.9331 19.0257 55.8211 18.979C55.7091 18.9323 55.6065 18.8717 55.5131 18.797C55.4245 18.7223 55.3498 18.6243 55.2891 18.503H55.2751V19H54.5191V14.002ZM57.3051 17.194C57.3051 17.0307 57.2841 16.872 57.2421 16.718C57.2001 16.564 57.1371 16.4287 57.0531 16.312C56.9691 16.1907 56.8641 16.095 56.7381 16.025C56.6121 15.9503 56.4675 15.913 56.3041 15.913C55.9681 15.913 55.7138 16.0297 55.5411 16.263C55.3731 16.4963 55.2891 16.8067 55.2891 17.194C55.2891 17.376 55.3101 17.5463 55.3521 17.705C55.3988 17.859 55.4665 17.992 55.5551 18.104C55.6438 18.216 55.7488 18.3047 55.8701 18.37C55.9961 18.4353 56.1408 18.468 56.3041 18.468C56.4861 18.468 56.6401 18.4307 56.7661 18.356C56.8921 18.2813 56.9948 18.1857 57.0741 18.069C57.1581 17.9477 57.2165 17.8123 57.2491 17.663C57.2865 17.509 57.3051 17.3527 57.3051 17.194ZM58.7984 14.002H59.5964V14.758H58.7984V14.002ZM58.7984 15.381H59.5964V19H58.7984V15.381ZM60.1019 15.381H60.7039V14.296H61.5019V15.381H62.2229V15.976H61.5019V17.908C61.5019 17.992 61.5042 18.0643 61.5089 18.125C61.5182 18.1857 61.5346 18.237 61.5579 18.279C61.5859 18.321 61.6256 18.3537 61.6769 18.377C61.7282 18.3957 61.7982 18.405 61.8869 18.405C61.9429 18.405 61.9989 18.405 62.0549 18.405C62.1109 18.4003 62.1669 18.391 62.2229 18.377V18.993C62.1342 19.0023 62.0479 19.0117 61.9639 19.021C61.8799 19.0303 61.7936 19.035 61.7049 19.035C61.4949 19.035 61.3246 19.0163 61.1939 18.979C61.0679 18.937 60.9676 18.8787 60.8929 18.804C60.8229 18.7247 60.7739 18.6267 60.7459 18.51C60.7226 18.3933 60.7086 18.2603 60.7039 18.111V15.976H60.1019V15.381Z" fill="white"/>
</svg>
