<svg width="344" height="214" viewBox="0 0 344 214" fill="none" xmlns="http://www.w3.org/2000/svg">
<rect x="2" y="2" width="340" height="210" rx="4" stroke="white" stroke-width="4"/>
<path d="M166.898 51.1797H177.902L163.312 103H152.977L146.719 72.6953L144.891 62.6758L143.062 72.6953L136.805 103H126.75L112.055 51.1797H123.551L130.406 80.8516L131.883 89.1133L133.395 81.0273L139.23 51.1797H150.656L156.809 80.8516L158.391 89.1133L159.973 81.168L166.898 51.1797ZM190.833 51.1797H201.591V103H190.833V51.1797ZM240.923 82.6797H229.744V103H219.162V51.1797H244.58C248.213 51.25 251.002 51.6953 252.947 52.5156C254.916 53.3359 256.58 54.543 257.939 56.1367C259.064 57.4492 259.955 58.9023 260.611 60.4961C261.267 62.0898 261.595 63.9062 261.595 65.9453C261.595 68.4062 260.974 70.832 259.732 73.2227C258.49 75.5898 256.439 77.2656 253.58 78.25C255.97 79.2109 257.658 80.582 258.642 82.3633C259.65 84.1211 260.154 86.8164 260.154 90.4492V93.9297C260.154 96.2969 260.248 97.9023 260.435 98.7461C260.716 100.082 261.373 101.066 262.404 101.699V103H250.486C250.158 101.852 249.923 100.926 249.783 100.223C249.502 98.7695 249.349 97.2812 249.326 95.7578L249.255 90.9414C249.209 87.6367 248.599 85.4336 247.427 84.332C246.279 83.2305 244.111 82.6797 240.923 82.6797ZM247.498 73.2578C249.654 72.2734 250.732 70.3281 250.732 67.4219C250.732 64.2812 249.689 62.1719 247.603 61.0938C246.431 60.4844 244.673 60.1797 242.33 60.1797H229.744V74.1016H242.013C244.451 74.1016 246.279 73.8203 247.498 73.2578ZM314.217 80.3594H289.045V93.6836H317.733V103H278.463V51.1797H316.467V60.3555H289.045V71.3594H314.217V80.3594Z" fill="#31A0FF"/>
<path d="M57.7578 131.453V137.57H47.4219V166H40.1562V137.57H29.7734V131.453H57.7578ZM81.4719 152.453H74.0187V166H66.9641V131.453H83.9094C86.3312 131.5 88.1906 131.797 89.4875 132.344C90.8 132.891 91.9094 133.695 92.8156 134.758C93.5656 135.633 94.1594 136.602 94.5969 137.664C95.0344 138.727 95.2531 139.938 95.2531 141.297C95.2531 142.938 94.8391 144.555 94.0109 146.148C93.1828 147.727 91.8156 148.844 89.9094 149.5C91.5031 150.141 92.6281 151.055 93.2844 152.242C93.9562 153.414 94.2922 155.211 94.2922 157.633V159.953C94.2922 161.531 94.3547 162.602 94.4797 163.164C94.6672 164.055 95.1047 164.711 95.7922 165.133V166H87.8469C87.6281 165.234 87.4719 164.617 87.3781 164.148C87.1906 163.18 87.0891 162.188 87.0734 161.172L87.0266 157.961C86.9953 155.758 86.5891 154.289 85.8078 153.555C85.0422 152.82 83.5969 152.453 81.4719 152.453ZM85.8547 146.172C87.2922 145.516 88.0109 144.219 88.0109 142.281C88.0109 140.188 87.3156 138.781 85.925 138.062C85.1437 137.656 83.9719 137.453 82.4094 137.453H74.0187V146.734H82.1984C83.8234 146.734 85.0422 146.547 85.8547 146.172ZM126.514 158.898H113.787L111.397 166H103.85L116.178 131.453H124.334L136.569 166H128.741L126.514 158.898ZM124.498 152.945L120.186 139.352L115.733 152.945H124.498ZM173.713 166H166.494L152.384 141.461V166H145.658V131.453H153.228L166.986 155.57V131.453H173.713V166ZM197.802 161.008C199.505 161.008 200.887 160.82 201.95 160.445C203.966 159.727 204.973 158.391 204.973 156.438C204.973 155.297 204.473 154.414 203.473 153.789C202.473 153.18 200.903 152.641 198.762 152.172L195.106 151.352C191.512 150.539 189.028 149.656 187.653 148.703C185.325 147.109 184.161 144.617 184.161 141.227C184.161 138.133 185.286 135.562 187.536 133.516C189.786 131.469 193.091 130.445 197.45 130.445C201.091 130.445 204.192 131.414 206.755 133.352C209.333 135.273 210.684 138.07 210.809 141.742H203.872C203.747 139.664 202.841 138.188 201.153 137.312C200.028 136.734 198.63 136.445 196.958 136.445C195.098 136.445 193.614 136.82 192.505 137.57C191.395 138.32 190.841 139.367 190.841 140.711C190.841 141.945 191.387 142.867 192.481 143.477C193.184 143.883 194.684 144.359 196.981 144.906L202.934 146.336C205.544 146.961 207.512 147.797 208.841 148.844C210.903 150.469 211.934 152.82 211.934 155.898C211.934 159.055 210.723 161.68 208.302 163.773C205.895 165.852 202.489 166.891 198.083 166.891C193.583 166.891 190.044 165.867 187.466 163.82C184.887 161.758 183.598 158.93 183.598 155.336H190.489C190.708 156.914 191.137 158.094 191.778 158.875C192.95 160.297 194.958 161.008 197.802 161.008ZM246.57 137.57H229.25V145.516H244.414V151.516H229.25V166H222.078V131.5H246.57V137.57ZM280.269 150.906H263.488V159.789H282.613V166H256.433V131.453H281.769V137.57H263.488V144.906H280.269V150.906ZM307.709 152.453H300.256V166H293.202V131.453H310.147C312.569 131.5 314.428 131.797 315.725 132.344C317.038 132.891 318.147 133.695 319.053 134.758C319.803 135.633 320.397 136.602 320.834 137.664C321.272 138.727 321.491 139.938 321.491 141.297C321.491 142.938 321.077 144.555 320.248 146.148C319.42 147.727 318.053 148.844 316.147 149.5C317.741 150.141 318.866 151.055 319.522 152.242C320.194 153.414 320.53 155.211 320.53 157.633V159.953C320.53 161.531 320.592 162.602 320.717 163.164C320.905 164.055 321.342 164.711 322.03 165.133V166H314.084C313.866 165.234 313.709 164.617 313.616 164.148C313.428 163.18 313.327 162.188 313.311 161.172L313.264 157.961C313.233 155.758 312.827 154.289 312.045 153.555C311.28 152.82 309.834 152.453 307.709 152.453ZM312.092 146.172C313.53 145.516 314.248 144.219 314.248 142.281C314.248 140.188 313.553 138.781 312.163 138.062C311.381 137.656 310.209 137.453 308.647 137.453H300.256V146.734H308.436C310.061 146.734 311.28 146.547 312.092 146.172Z" fill="#99CFFC"/>
<rect x="29" y="52" width="67" height="12" fill="url(#paint0_linear_2341_40)"/>
<rect x="29" y="72" width="67" height="12" fill="url(#paint1_linear_2341_40)"/>
<rect x="29" y="91" width="67" height="12" fill="url(#paint2_linear_2341_40)"/>
<defs>
<linearGradient id="paint0_linear_2341_40" x1="91.037" y1="56" x2="35.884" y2="59.0755" gradientUnits="userSpaceOnUse">
<stop stop-color="#008AFF"/>
<stop offset="1" stop-color="white" stop-opacity="0.46"/>
</linearGradient>
<linearGradient id="paint1_linear_2341_40" x1="91.037" y1="76" x2="35.884" y2="79.0755" gradientUnits="userSpaceOnUse">
<stop stop-color="#008AFF"/>
<stop offset="1" stop-color="white" stop-opacity="0.46"/>
</linearGradient>
<linearGradient id="paint2_linear_2341_40" x1="91.037" y1="95" x2="35.884" y2="98.0755" gradientUnits="userSpaceOnUse">
<stop stop-color="#008AFF"/>
<stop offset="1" stop-color="white" stop-opacity="0.46"/>
</linearGradient>
</defs>
</svg>
